<svg width="33" height="31" viewBox="0 0 33 31" fill="none" xmlns="http://www.w3.org/2000/svg">
<g filter="url(#filter0_d_100_217)">
<path d="M17.2689 22.0446L26.9487 12.2734C28.2044 10.9917 28.9056 9.26746 28.9006 7.47311C28.8957 5.67877 28.1851 3.95838 26.9223 2.68359C26.3029 2.05169 25.5639 1.54929 24.7485 1.2056C23.9331 0.861917 23.0575 0.683812 22.1726 0.681648C21.2877 0.679485 20.4112 0.853306 19.5941 1.193C18.777 1.53269 18.0356 2.03148 17.4131 2.66034L16.4893 3.59499L15.5515 2.64949C14.9329 2.01843 14.195 1.51666 13.3807 1.17336C12.5664 0.830059 11.692 0.65208 10.8083 0.649772C9.92459 0.647465 9.04925 0.820874 8.23318 1.15992C7.4171 1.49896 6.67658 1.99687 6.05467 2.62469C3.43827 5.26744 3.45067 9.56249 6.07947 12.2176L15.8088 22.0446C16.2118 22.4523 16.8659 22.4523 17.2689 22.0446ZM18.5151 3.74999C18.9936 3.26697 19.5635 2.88401 20.1915 2.62342C20.8194 2.36283 21.493 2.22981 22.1729 2.23212C22.8528 2.23442 23.5254 2.37201 24.1516 2.63686C24.7778 2.90172 25.3451 3.28853 25.8203 3.77479C26.7956 4.75957 27.3448 6.08821 27.3494 7.47421C27.354 8.8602 26.8138 10.1925 25.8451 11.1838V11.1869L16.5389 20.5799L7.17997 11.1264C5.14482 9.07114 5.14327 5.74794 7.15672 3.71434C7.63462 3.23222 8.20365 2.84998 8.83068 2.58988C9.45772 2.32979 10.1302 2.19703 10.8091 2.19934C11.4879 2.20165 12.1595 2.33898 12.7847 2.60333C13.41 2.86768 13.9764 3.25378 14.451 3.73914L15.939 5.24264C16.0111 5.31551 16.0969 5.37336 16.1915 5.41285C16.2861 5.45233 16.3876 5.47266 16.49 5.47266C16.5925 5.47266 16.694 5.45233 16.7886 5.41285C16.8832 5.37336 16.969 5.31551 17.0411 5.24264L18.5151 3.74999Z" fill="black"/>
</g>
<defs>
<filter id="filter0_d_100_217" x="0.100098" y="0.64975" width="32.8005" height="29.7006" filterUnits="userSpaceOnUse" color-interpolation-filters="sRGB">
<feFlood flood-opacity="0" result="BackgroundImageFix"/>
<feColorMatrix in="SourceAlpha" type="matrix" values="0 0 0 0 0 0 0 0 0 0 0 0 0 0 0 0 0 0 127 0" result="hardAlpha"/>
<feOffset dy="4"/>
<feGaussianBlur stdDeviation="2"/>
<feComposite in2="hardAlpha" operator="out"/>
<feColorMatrix type="matrix" values="0 0 0 0 0 0 0 0 0 0 0 0 0 0 0 0 0 0 0.25 0"/>
<feBlend mode="normal" in2="BackgroundImageFix" result="effect1_dropShadow_100_217"/>
<feBlend mode="normal" in="SourceGraphic" in2="effect1_dropShadow_100_217" result="shape"/>
</filter>
</defs>
</svg>
