<svg width="155" height="26" viewBox="0 0 155 26" fill="none" xmlns="http://www.w3.org/2000/svg">
<g clip-path="url(#clip0_219_98722)">
<mask id="mask0_219_98722" style="mask-type:luminance" maskUnits="userSpaceOnUse" x="0" y="0" width="155" height="26">
<path d="M155 0H0V26H155V0Z" fill="white"/>
</mask>
<g mask="url(#mask0_219_98722)">
<path d="M51.696 23.36C51.536 22.976 51.416 22.52 51.336 21.992C51.256 21.448 51.208 20.896 51.192 20.336C51.192 19.76 51.224 19.224 51.288 18.728C51.352 18.232 51.456 17.84 51.6 17.552C52.352 17.584 53.072 17.36 53.76 16.88C54.448 16.4 55.144 15.648 55.848 14.624C55.224 13.44 54.552 12.432 53.832 11.6C53.112 10.752 52.368 10.288 51.6 10.208C51.456 9.92 51.352 9.528 51.288 9.032C51.224 8.536 51.192 8.008 51.192 7.448C51.208 6.872 51.256 6.32 51.336 5.792C51.416 5.248 51.536 4.784 51.696 4.4C52.352 4.464 53.28 4.536 54.48 4.616C55.696 4.696 57.048 4.736 58.536 4.736C59.192 4.736 59.88 4.72 60.6 4.688C61.336 4.64 62.04 4.592 62.712 4.544C63.384 4.48 63.944 4.432 64.392 4.4C64.44 5.04 64.528 5.736 64.656 6.488C64.8 7.24 65.056 7.952 65.424 8.624C65.792 9.28 66.344 9.824 67.08 10.256L67.464 9.632C66.84 9.264 66.368 8.808 66.048 8.264C65.744 7.72 65.528 7.12 65.4 6.464C65.288 5.792 65.2 5.096 65.136 4.376C65.6 4.44 66.072 4.504 66.552 4.568C67.032 4.616 67.616 4.656 68.304 4.688C69.008 4.72 69.896 4.736 70.968 4.736C71.48 4.736 72.072 4.72 72.744 4.688C73.416 4.64 74.08 4.592 74.736 4.544C75.392 4.48 75.936 4.432 76.368 4.4C76.528 4.784 76.648 5.248 76.728 5.792C76.808 6.32 76.848 6.872 76.848 7.448C76.864 8.008 76.84 8.536 76.776 9.032C76.712 9.528 76.608 9.92 76.464 10.208C76.128 10.24 75.744 10.296 75.312 10.376C74.88 10.456 74.4 10.68 73.872 11.048C73.36 11.416 72.784 12.056 72.144 12.968C72.848 14.424 73.528 15.544 74.184 16.328C74.84 17.112 75.6 17.52 76.464 17.552C76.608 17.84 76.712 18.232 76.776 18.728C76.84 19.224 76.864 19.76 76.848 20.336C76.848 20.896 76.808 21.448 76.728 21.992C76.648 22.52 76.528 22.976 76.368 23.36C75.712 23.296 74.776 23.224 73.56 23.144C72.36 23.064 71.016 23.024 69.528 23.024C68.44 23.024 67.36 23.064 66.288 23.144C65.232 23.224 64.36 23.296 63.672 23.36C63.64 22.784 63.552 22.136 63.408 21.416C63.264 20.696 63 20 62.616 19.328C62.232 18.656 61.648 18.112 60.864 17.696L60.504 18.32C61.176 18.688 61.672 19.144 61.992 19.688C62.328 20.216 62.56 20.8 62.688 21.44C62.816 22.064 62.904 22.704 62.952 23.36C62.504 23.296 62.032 23.24 61.536 23.192C61.04 23.144 60.44 23.104 59.736 23.072C59.048 23.04 58.168 23.024 57.096 23.024C56.584 23.024 55.992 23.04 55.32 23.072C54.648 23.12 53.984 23.168 53.328 23.216C52.688 23.264 52.144 23.312 51.696 23.36ZM77.7585 23.36C77.5985 22.976 77.4785 22.52 77.3985 21.992C77.3185 21.448 77.2705 20.896 77.2545 20.336C77.2545 19.76 77.2865 19.224 77.3505 18.728C77.4145 18.232 77.5185 17.84 77.6625 17.552C78.4145 17.584 79.1345 17.36 79.8225 16.88C80.5105 16.4 81.2065 15.648 81.9105 14.624C81.2865 13.44 80.6145 12.432 79.8945 11.6C79.1745 10.752 78.4305 10.288 77.6625 10.208C77.5185 9.92 77.4145 9.528 77.3505 9.032C77.2865 8.536 77.2545 8.008 77.2545 7.448C77.2705 6.872 77.3185 6.32 77.3985 5.792C77.4785 5.248 77.5985 4.784 77.7585 4.4C78.4145 4.464 79.3425 4.536 80.5425 4.616C81.7585 4.696 83.1105 4.736 84.5985 4.736C85.2545 4.736 85.9425 4.72 86.6625 4.688C87.3985 4.64 88.1025 4.592 88.7745 4.544C89.4465 4.48 90.0065 4.432 90.4545 4.4C90.5025 5.04 90.5905 5.736 90.7185 6.488C90.8625 7.24 91.1185 7.952 91.4865 8.624C91.8545 9.28 92.4065 9.824 93.1425 10.256L93.5265 9.632C92.9025 9.264 92.4305 8.808 92.1105 8.264C91.8065 7.72 91.5905 7.12 91.4625 6.464C91.3505 5.792 91.2625 5.096 91.1985 4.376C91.6625 4.44 92.1345 4.504 92.6145 4.568C93.0945 4.616 93.6785 4.656 94.3665 4.688C95.0705 4.72 95.9585 4.736 97.0305 4.736C97.5425 4.736 98.1345 4.72 98.8065 4.688C99.4785 4.64 100.143 4.592 100.799 4.544C101.455 4.48 101.999 4.432 102.431 4.4C102.591 4.784 102.711 5.248 102.791 5.792C102.871 6.32 102.911 6.872 102.911 7.448C102.927 8.008 102.903 8.536 102.839 9.032C102.775 9.528 102.671 9.92 102.527 10.208C102.191 10.24 101.807 10.296 101.375 10.376C100.943 10.456 100.463 10.68 99.9345 11.048C99.4225 11.416 98.8465 12.056 98.2065 12.968C98.9105 14.424 99.5905 15.544 100.247 16.328C100.903 17.112 101.663 17.52 102.527 17.552C102.671 17.84 102.775 18.232 102.839 18.728C102.903 19.224 102.927 19.76 102.911 20.336C102.911 20.896 102.871 21.448 102.791 21.992C102.711 22.52 102.591 22.976 102.431 23.36C101.775 23.296 100.839 23.224 99.6225 23.144C98.4225 23.064 97.0785 23.024 95.5905 23.024C94.5025 23.024 93.4225 23.064 92.3505 23.144C91.2945 23.224 90.4225 23.296 89.7345 23.36C89.7025 22.784 89.6145 22.136 89.4705 21.416C89.3265 20.696 89.0625 20 88.6785 19.328C88.2945 18.656 87.7105 18.112 86.9265 17.696L86.5665 18.32C87.2385 18.688 87.7345 19.144 88.0545 19.688C88.3905 20.216 88.6225 20.8 88.7505 21.44C88.8785 22.064 88.9665 22.704 89.0145 23.36C88.5665 23.296 88.0945 23.24 87.5985 23.192C87.1025 23.144 86.5025 23.104 85.7985 23.072C85.1105 23.04 84.2305 23.024 83.1585 23.024C82.6465 23.024 82.0545 23.04 81.3825 23.072C80.7105 23.12 80.0465 23.168 79.3905 23.216C78.7505 23.264 78.2065 23.312 77.7585 23.36Z" fill="black"/>
</g>
</g>
<defs>
<clipPath id="clip0_219_98722">
<rect width="155" height="26" fill="white"/>
</clipPath>
</defs>
</svg>
