<svg width="231" height="40" viewBox="0 0 231 40" fill="none" xmlns="http://www.w3.org/2000/svg">
<g clip-path="url(#clip0_219_98728)">
<path d="M73.16 36.6C72.8933 35.96 72.6933 35.2 72.56 34.32C72.4267 33.4133 72.3467 32.4933 72.32 31.56C72.32 30.6 72.3733 29.7067 72.48 28.88C72.5867 28.0533 72.76 27.4 73 26.92C74.2533 26.9733 75.4533 26.6 76.6 25.8C77.7467 25 78.9067 23.7467 80.08 22.04C79.04 20.0667 77.92 18.3867 76.72 17C75.52 15.5867 74.28 14.8133 73 14.68C72.76 14.2 72.5867 13.5467 72.48 12.72C72.3733 11.8933 72.32 11.0133 72.32 10.08C72.3467 9.12 72.4267 8.2 72.56 7.32C72.6933 6.41333 72.8933 5.64 73.16 5C74.2533 5.10667 75.8 5.22667 77.8 5.36C79.8267 5.49333 82.08 5.56 84.56 5.56C85.6533 5.56 86.8 5.53333 88 5.48C89.2267 5.4 90.4 5.32 91.52 5.24C92.64 5.13333 93.5733 5.05333 94.32 5C94.4 6.06667 94.5467 7.22667 94.76 8.48C95 9.73333 95.4267 10.92 96.04 12.04C96.6533 13.1333 97.5733 14.04 98.8 14.76L99.44 13.72C98.4 13.1067 97.6133 12.3467 97.08 11.44C96.5733 10.5333 96.2133 9.53333 96 8.44C95.8133 7.32 95.6667 6.16 95.56 4.96C96.3333 5.06667 97.12 5.17333 97.92 5.28C98.72 5.36 99.6933 5.42667 100.84 5.48C102.013 5.53333 103.493 5.56 105.28 5.56C106.133 5.56 107.12 5.53333 108.24 5.48C109.36 5.4 110.467 5.32 111.56 5.24C112.653 5.13333 113.56 5.05333 114.28 5C114.547 5.64 114.747 6.41333 114.88 7.32C115.013 8.2 115.08 9.12 115.08 10.08C115.107 11.0133 115.067 11.8933 114.96 12.72C114.853 13.5467 114.68 14.2 114.44 14.68C113.88 14.7333 113.24 14.8267 112.52 14.96C111.8 15.0933 111 15.4667 110.12 16.08C109.267 16.6933 108.307 17.76 107.24 19.28C108.413 21.7067 109.547 23.5733 110.64 24.88C111.733 26.1867 113 26.8667 114.44 26.92C114.68 27.4 114.853 28.0533 114.96 28.88C115.067 29.7067 115.107 30.6 115.08 31.56C115.08 32.4933 115.013 33.4133 114.88 34.32C114.747 35.2 114.547 35.96 114.28 36.6C113.187 36.4933 111.627 36.3733 109.6 36.24C107.6 36.1067 105.36 36.04 102.88 36.04C101.067 36.04 99.2667 36.1067 97.48 36.24C95.72 36.3733 94.2667 36.4933 93.12 36.6C93.0667 35.64 92.92 34.56 92.68 33.36C92.44 32.16 92 31 91.36 29.88C90.72 28.76 89.7467 27.8533 88.44 27.16L87.84 28.2C88.96 28.8133 89.7867 29.5733 90.32 30.48C90.88 31.36 91.2667 32.3333 91.48 33.4C91.6933 34.44 91.84 35.5067 91.92 36.6C91.1733 36.4933 90.3867 36.4 89.56 36.32C88.7333 36.24 87.7333 36.1733 86.56 36.12C85.4133 36.0667 83.9467 36.04 82.16 36.04C81.3067 36.04 80.32 36.0667 79.2 36.12C78.08 36.2 76.9733 36.28 75.88 36.36C74.8133 36.44 73.9067 36.52 73.16 36.6ZM116.598 36.6C116.331 35.96 116.131 35.2 115.998 34.32C115.864 33.4133 115.784 32.4933 115.758 31.56C115.758 30.6 115.811 29.7067 115.918 28.88C116.024 28.0533 116.198 27.4 116.438 26.92C117.691 26.9733 118.891 26.6 120.038 25.8C121.184 25 122.344 23.7467 123.518 22.04C122.478 20.0667 121.358 18.3867 120.158 17C118.958 15.5867 117.718 14.8133 116.438 14.68C116.198 14.2 116.024 13.5467 115.918 12.72C115.811 11.8933 115.758 11.0133 115.758 10.08C115.784 9.12 115.864 8.2 115.998 7.32C116.131 6.41333 116.331 5.64 116.598 5C117.691 5.10667 119.238 5.22667 121.238 5.36C123.264 5.49333 125.518 5.56 127.998 5.56C129.091 5.56 130.238 5.53333 131.438 5.48C132.664 5.4 133.838 5.32 134.958 5.24C136.078 5.13333 137.011 5.05333 137.758 5C137.838 6.06667 137.984 7.22667 138.198 8.48C138.438 9.73333 138.864 10.92 139.478 12.04C140.091 13.1333 141.011 14.04 142.238 14.76L142.878 13.72C141.838 13.1067 141.051 12.3467 140.518 11.44C140.011 10.5333 139.651 9.53333 139.438 8.44C139.251 7.32 139.104 6.16 138.998 4.96C139.771 5.06667 140.558 5.17333 141.358 5.28C142.158 5.36 143.131 5.42667 144.278 5.48C145.451 5.53333 146.931 5.56 148.718 5.56C149.571 5.56 150.558 5.53333 151.678 5.48C152.798 5.4 153.904 5.32 154.998 5.24C156.091 5.13333 156.998 5.05333 157.718 5C157.984 5.64 158.184 6.41333 158.318 7.32C158.451 8.2 158.518 9.12 158.518 10.08C158.544 11.0133 158.504 11.8933 158.398 12.72C158.291 13.5467 158.118 14.2 157.878 14.68C157.318 14.7333 156.678 14.8267 155.958 14.96C155.238 15.0933 154.438 15.4667 153.558 16.08C152.704 16.6933 151.744 17.76 150.678 19.28C151.851 21.7067 152.984 23.5733 154.078 24.88C155.171 26.1867 156.438 26.8667 157.878 26.92C158.118 27.4 158.291 28.0533 158.398 28.88C158.504 29.7067 158.544 30.6 158.518 31.56C158.518 32.4933 158.451 33.4133 158.318 34.32C158.184 35.2 157.984 35.96 157.718 36.6C156.624 36.4933 155.064 36.3733 153.038 36.24C151.038 36.1067 148.798 36.04 146.318 36.04C144.504 36.04 142.704 36.1067 140.918 36.24C139.158 36.3733 137.704 36.4933 136.557 36.6C136.504 35.64 136.358 34.56 136.118 33.36C135.878 32.16 135.438 31 134.798 29.88C134.158 28.76 133.184 27.8533 131.878 27.16L131.278 28.2C132.398 28.8133 133.224 29.5733 133.758 30.48C134.318 31.36 134.704 32.3333 134.918 33.4C135.131 34.44 135.278 35.5067 135.358 36.6C134.611 36.4933 133.824 36.4 132.998 36.32C132.171 36.24 131.171 36.1733 129.998 36.12C128.851 36.0667 127.384 36.04 125.598 36.04C124.744 36.04 123.758 36.0667 122.638 36.12C121.518 36.2 120.411 36.28 119.318 36.36C118.251 36.44 117.344 36.52 116.598 36.6Z" fill="black"/>
</g>
<defs>
<clipPath id="clip0_219_98728">
<rect width="230" height="39" fill="white" transform="translate(0.5 0.5)"/>
</clipPath>
</defs>
</svg>
