<svg width="13" height="13" viewBox="0 0 13 13" fill="none" xmlns="http://www.w3.org/2000/svg">
<path d="M5.74005 10.68C3.00405 10.68 0.800049 8.476 0.800049 5.74C0.800049 3.004 3.00405 0.799999 5.74005 0.799999C8.47605 0.799999 10.68 3.004 10.68 5.74C10.68 8.476 8.47605 10.68 5.74005 10.68ZM5.74005 1.56C3.42205 1.56 1.56005 3.422 1.56005 5.74C1.56005 8.058 3.42205 9.92 5.74005 9.92C8.05805 9.92 9.92005 8.058 9.92005 5.74C9.92005 3.422 8.05805 1.56 5.74005 1.56Z" fill="black"/>
<path d="M9.41921 8.88146L12.8316 12.2939L12.2943 12.8312L8.88189 9.41878L9.41921 8.88146Z" fill="black"/>
</svg>
