<svg width="31" height="31" viewBox="0 0 31 31" fill="none" xmlns="http://www.w3.org/2000/svg">
<path d="M20.1389 11.6667V9.29028C20.1389 8.54977 19.993 7.81651 19.7097 7.13237C19.4263 6.44823 19.0109 5.8266 18.4873 5.30298C17.9637 4.77936 17.3421 4.364 16.6579 4.08062C15.9738 3.79724 15.2405 3.65139 14.5 3.65139C13.7595 3.65139 13.0262 3.79724 12.3421 4.08062C11.6579 4.364 11.0363 4.77936 10.5127 5.30298C9.98908 5.8266 9.57373 6.44823 9.29035 7.13237C9.00697 7.81651 8.86111 8.54977 8.86111 9.29028V14.9292C8.86111 15.1428 8.94598 15.3477 9.09705 15.4988C9.24812 15.6499 9.45302 15.7347 9.66667 15.7347C9.88031 15.7347 10.0852 15.6499 10.2363 15.4988C10.3874 15.3477 10.4722 15.1428 10.4722 14.9292V13.2778H18.5278V11.6667H10.4722V9.29028C10.4722 8.22204 10.8966 7.19756 11.6519 6.44221C12.4073 5.68685 13.4318 5.2625 14.5 5.2625C15.5682 5.2625 16.5927 5.68685 17.3481 6.44221C18.1034 7.19756 18.5278 8.22204 18.5278 9.29028V13.2778H19.3414C19.5551 13.2778 19.75 13.2778 19.75 13.2778H24.1667V27.7778H4.83333V13.2778H8.86111V11.6667H3.22222V27.8503C3.22222 28.2583 3.38433 28.6497 3.67287 28.9382C3.96142 29.2268 4.35277 29.3889 4.76083 29.3889H24.2392C24.6472 29.3889 25.0386 29.2268 25.3271 28.9382C25.6157 28.6497 25.7778 28.2583 25.7778 27.8503V11.6667H20.1389Z" fill="black"/>
<path d="M31 8C31 12.4183 27.4183 16 23 16C18.5817 16 15 12.4183 15 8C15 3.58172 18.5817 0 23 0C27.4183 0 31 3.58172 31 8Z" fill="white"/>
<path d="M20.33 12V10.636L23.212 7.941C23.4173 7.75033 23.5677 7.58167 23.663 7.435C23.7657 7.28833 23.8317 7.15633 23.861 7.039C23.8977 6.91433 23.916 6.80067 23.916 6.698C23.916 6.44867 23.8317 6.25433 23.663 6.115C23.5017 5.97567 23.256 5.906 22.926 5.906C22.6473 5.906 22.387 5.96833 22.145 6.093C21.903 6.21767 21.705 6.40467 21.551 6.654L19.934 5.752C20.22 5.268 20.6343 4.87933 21.177 4.586C21.7197 4.29267 22.3687 4.146 23.124 4.146C23.718 4.146 24.2387 4.24133 24.686 4.432C25.1333 4.62267 25.4817 4.894 25.731 5.246C25.9877 5.598 26.116 6.01233 26.116 6.489C26.116 6.73833 26.083 6.98767 26.017 7.237C25.951 7.479 25.8227 7.73933 25.632 8.018C25.4487 8.28933 25.1737 8.59367 24.807 8.931L22.519 11.043L22.156 10.273H26.325V12H20.33Z" fill="black"/>
</svg>
