<svg width="24" height="24" viewBox="0 0 24 24" fill="none" xmlns="http://www.w3.org/2000/svg">
<path d="M11.7292 14.5833C18.1148 14.5833 23.2917 16.9991 23.2917 19.9792V23.8333H0.166748V19.9792C0.166748 16.9991 5.34366 14.5833 11.7292 14.5833ZM21.7501 19.9792C21.7501 17.8517 17.2638 16.125 11.7292 16.125C6.19466 16.125 1.70841 17.8517 1.70841 19.9792V22.2917H21.7501V19.9792ZM11.7292 0.708333C13.1603 0.708333 14.5328 1.27682 15.5447 2.28874C16.5566 3.30065 17.1251 4.6731 17.1251 6.10417C17.1251 7.53523 16.5566 8.90768 15.5447 9.9196C14.5328 10.9315 13.1603 11.5 11.7292 11.5C10.2982 11.5 8.92573 10.9315 7.91382 9.9196C6.9019 8.90768 6.33341 7.53523 6.33341 6.10417C6.33341 4.6731 6.9019 3.30065 7.91382 2.28874C8.92573 1.27682 10.2982 0.708333 11.7292 0.708333ZM11.7292 2.25C10.7071 2.25 9.72674 2.65606 9.00394 3.37886C8.28114 4.10166 7.87508 5.08198 7.87508 6.10417C7.87508 7.12635 8.28114 8.10668 9.00394 8.82947C9.72674 9.55227 10.7071 9.95833 11.7292 9.95833C12.7514 9.95833 13.7318 9.55227 14.4546 8.82947C15.1774 8.10668 15.5834 7.12635 15.5834 6.10417C15.5834 5.08198 15.1774 4.10166 14.4546 3.37886C13.7318 2.65606 12.7514 2.25 11.7292 2.25Z" fill="black"/>
</svg>
