<svg width="22" height="19" viewBox="0 0 22 19" fill="none" xmlns="http://www.w3.org/2000/svg">
<path d="M11.6449 18.6826L19.7634 10.4874C20.8166 9.41244 21.4047 7.96628 21.4005 6.46134C21.3964 4.95641 20.8004 3.5135 19.7413 2.44432C19.2218 1.91435 18.602 1.49298 17.9181 1.20472C17.2342 0.916472 16.4998 0.767094 15.7577 0.765279C15.0155 0.763464 14.2804 0.90925 13.5951 1.19415C12.9098 1.47906 12.288 1.89739 11.7658 2.42482L10.991 3.20872L10.2045 2.41572C9.68568 1.88645 9.06678 1.46561 8.38383 1.17768C7.70087 0.889752 6.96749 0.74048 6.22632 0.738544C5.48516 0.736609 4.751 0.882049 4.06655 1.16641C3.3821 1.45076 2.76102 1.86837 2.23942 2.39492C0.0450183 4.61142 0.0554184 8.21372 2.26022 10.4406L10.4203 18.6826C10.7583 19.0245 11.3069 19.0245 11.6449 18.6826ZM12.6901 3.33872C13.0914 2.93362 13.5694 2.61242 14.0961 2.39386C14.6228 2.1753 15.1877 2.06374 15.7579 2.06567C16.3282 2.06761 16.8923 2.183 17.4175 2.40514C17.9427 2.62727 18.4185 2.9517 18.817 3.35952C19.635 4.18547 20.0956 5.29982 20.0995 6.46227C20.1034 7.62471 19.6503 8.74212 18.8378 9.57352V9.57612L11.0326 17.4541L3.18322 9.52542C1.47632 7.80162 1.47502 5.01442 3.16372 3.30882C3.56453 2.90446 4.04178 2.58388 4.56768 2.36574C5.09359 2.14759 5.65763 2.03625 6.22697 2.03818C6.79632 2.04012 7.35959 2.1553 7.884 2.37701C8.4084 2.59873 8.88346 2.92255 9.28152 3.32962L10.5295 4.59062C10.59 4.65174 10.6619 4.70027 10.7413 4.73338C10.8206 4.7665 10.9057 4.78355 10.9917 4.78355C11.0776 4.78355 11.1627 4.7665 11.2421 4.73338C11.3214 4.70027 11.3934 4.65174 11.4538 4.59062L12.6901 3.33872Z" fill="white"/>
</svg>
